# File created by Blade
# Date/Time:  Tue Jan 27 17:27:32 2015
# Frame Rate: 120.000 fps
#------------------------------------------------------
:FULLY-SPECIFIED
:DEGREES
1239
root 1.779758 37.058303 1.082676 8.155902 25.976539 -2.234175
Spine 1.858118 8.004942 1.458921
Head 7.960730 -6.752150 -0.195539
LeftShoulder -3.759119 -10.420526 7.726762
LeftArm -0.151396 -23.535149 -55.326717
LeftForeArm 5.335718 -0.000000 102.728178
LeftHand -11.517567 -0.000000 31.605585
LeftHandThumb1 -26.253704 0.000000 33.147579
RightShoulder -4.279795 -20.958073 -0.204379
RightArm 18.491220 -26.829470 58.053007
RightForeArm 187.178152 0.000000 26.791590
RightHand 0.506349 -0.000000 1.923698
RightHandThumb1 -24.326973 -0.000000 -32.862282
LeftUpLeg -13.664796 5.351799 -0.165962
LeftLeg 15.669387 -0.000000 -0.000000
LeftFoot -18.635313 2.015235 -13.064324
LeftToeBase 10.837949 -0.000000 -0.000000
RightUpLeg -8.760348 -10.995161 -0.185162
RightLeg 21.582221 -0.000000 -0.000000
RightFoot -12.867408 2.607901 8.862277
RightToeBase -8.590482 -0.000000 0.000000
1240
root 1.815702 37.044007 1.098762 7.925035 26.231201 -2.275155
Spine 1.954850 7.674338 1.516000
Head 8.109559 -6.940684 0.109785
LeftShoulder -3.648750 -10.396346 7.477091
LeftArm -0.248260 -23.397231 -54.882804
LeftForeArm 5.320311 -0.000000 103.171467
LeftHand -11.569643 -0.000000 31.146894
LeftHandThumb1 -26.253704 0.000000 33.147579
RightShoulder -4.435205 -20.959327 -0.003288
RightArm 18.368976 -26.458449 58.118488
RightForeArm 187.152990 -0.000000 26.737713
RightHand 0.600816 -0.000000 2.135873
RightHandThumb1 -24.326973 -0.000000 -32.862282
LeftUpLeg -13.350765 5.311604 -0.073475
LeftLeg 15.516155 -0.000000 -0.000000
LeftFoot -18.602463 1.609768 -13.259171
LeftToeBase 11.092910 -0.000000 -0.000000
RightUpLeg -8.580431 -10.925866 -0.207126
RightLeg 21.833443 -0.000000 -0.000000
RightFoot -13.023242 2.369707 9.011304
RightToeBase -8.636654 -0.000000 0.000000
1241
root 1.856743 37.033923 1.113868 7.699745 26.445251 -2.267698
Spine 2.082111 7.395487 1.494294
Head 8.212021 -7.145105 0.481581
LeftShoulder -3.657266 -10.301461 7.574926
LeftArm -0.208213 -23.262928 -55.028393
LeftForeArm 5.489723 -0.000000 103.437285
LeftHand -11.542532 0.000000 30.948387
LeftHandThumb1 -26.253704 0.000000 33.147579
RightShoulder -4.553357 -21.025454 0.266218
RightArm 18.255079 -25.937635 58.179010
RightForeArm 187.320579 -0.000000 26.673971
RightHand 0.607147 -0.000000 2.330291
RightHandThumb1 -24.326973 -0.000000 -32.862282
LeftUpLeg -13.046620 5.412266 -0.074910
LeftLeg 15.405043 -0.000000 -0.000000
LeftFoot -18.541351 1.195322 -13.274308
LeftToeBase 11.269386 -0.000000 -0.000000
RightUpLeg -8.399731 -10.803461 -0.286644
RightLeg 22.109822 -0.000000 -0.000000
RightFoot -13.148500 2.131581 9.216627
RightToeBase -8.639264 -0.000000 0.000000
1242
root 1.899582 37.028051 1.126542 7.433134 26.681244 -2.222987
Spine 2.327457 7.083255 1.439095
Head 8.189787 -7.375679 0.893976
LeftShoulder -3.626192 -10.255669 7.532936
LeftArm -0.228883 -23.075925 -54.855437
LeftForeArm 5.549810 -0.000000 103.764843
LeftHand -11.670026 -0.000000 30.993832
LeftHandThumb1 -26.253704 0.000000 33.147579
RightShoulder -4.701394 -21.035709 0.570741
RightArm 18.191330 -25.414734 58.197467
RightForeArm 187.516433 -0.000000 26.598251
RightHand 0.629796 -0.000000 2.402798
RightHandThumb1 -24.326973 -0.000000 -32.862282
LeftUpLeg -12.703649 5.538239 -0.123272
LeftLeg 15.315233 -0.000000 -0.000000
LeftFoot -18.433851 0.767625 -13.190057
LeftToeBase 11.428640 -0.000000 -0.000000
RightUpLeg -8.177780 -10.728321 -0.413407
RightLeg 22.412896 -0.000000 -0.000000
RightFoot -13.214738 1.939696 9.455586
RightToeBase -8.794170 -0.000000 0.000000
1243
root 1.943992 37.024325 1.136277 7.206212 26.920667 -2.168550
Spine 2.545489 6.800141 1.373784
Head 8.145656 -7.610336 1.265688
LeftShoulder -3.563427 -10.214440 7.475305
LeftArm -0.255810 -22.881566 -54.669330
LeftForeArm 5.487846 -0.000000 104.091676
LeftHand -11.666534 -0.000000 31.062381
LeftHandThumb1 -26.253704 0.000000 33.147579
RightShoulder -4.899850 -21.058721 0.892899
RightArm 18.161852 -24.934843 58.198017
RightForeArm 187.739715 0.000000 26.525499
RightHand 0.591508 -0.000000 2.601327
RightHandThumb1 -24.326973 -0.000000 -32.862282
LeftUpLeg -12.418326 5.633638 -0.193113
LeftLeg 15.274117 -0.000000 -0.000000
LeftFoot -18.329143 0.404715 -13.161545
LeftToeBase 11.581526 -0.000000 -0.000000
RightUpLeg -8.003908 -10.721898 -0.549167
RightLeg 22.739595 -0.000000 -0.000000
RightFoot -13.268259 1.822423 9.700616
RightToeBase -8.843765 -0.000000 0.000000
1244
root 1.993557 37.022638 1.143773 6.985323 27.175692 -2.102479
Spine 2.759632 6.489506 1.314232
Head 8.123496 -7.833970 1.586907
LeftShoulder -3.514758 -10.097739 7.466527
LeftArm -0.206177 -22.810164 -54.668124
LeftForeArm 5.470825 -0.000000 104.370307
LeftHand -11.783563 -0.000000 30.881148
LeftHandThumb1 -26.253704 0.000000 33.147579
RightShoulder -5.048806 -21.068165 1.149341
RightArm 18.106794 -24.478215 58.251378
RightForeArm 188.046973 -0.000000 26.448385
RightHand 0.541967 0.000000 2.751557
RightHandThumb1 -24.326973 -0.000000 -32.862282
LeftUpLeg -12.140487 5.706563 -0.291997
LeftLeg 15.242957 -0.000000 -0.000000
LeftFoot -18.222889 0.141406 -13.074141
LeftToeBase 11.710788 -0.000000 -0.000000
RightUpLeg -7.838947 -10.788917 -0.704732
RightLeg 23.079897 -0.000000 -0.000000
RightFoot -13.289081 1.752319 9.930838
RightToeBase -8.992303 -0.000000 0.000000
1245
root 2.042533 37.023004 1.157102 6.701044 27.432213 -2.079700
Spine 3.034037 6.193065 1.291957
Head 8.051529 -8.084623 1.910491
LeftShoulder -3.510080 -10.001651 7.577959
LeftArm -0.139376 -22.911245 -54.966001
LeftForeArm 5.199622 -0.000000 104.611484
LeftHand -11.515652 -0.000000 30.120448
LeftHandThumb1 -26.253704 0.000000 33.147579
RightShoulder -5.194699 -21.040729 1.402653
RightArm 18.015762 -24.000442 58.343272
RightForeArm 188.268729 -0.000000 26.377120
RightHand 0.393423 0.000000 2.839878
RightHandThumb1 -24.326973 -0.000000 -32.862282
LeftUpLeg -11.790072 5.710248 -0.338581
LeftLeg 15.179718 -0.000000 -0.000000
LeftFoot -18.146105 -0.030124 -12.947697
LeftToeBase 11.790254 -0.000000 -0.000000
RightUpLeg -7.615043 -10.816217 -0.830999
RightLeg 23.401920 -0.000000 -0.000000
RightFoot -13.248979 1.677583 10.148634
RightToeBase -9.169048 -0.000000 0.000000
1246
root 2.090862 37.024478 1.162811 6.480911 27.620066 -2.073666
Spine 3.221610 5.987090 1.286812
Head 8.006734 -8.326957 2.176215
LeftShoulder -3.451218 -9.930832 7.626248
LeftArm -0.116727 -22.818272 -55.072698
LeftForeArm 5.294698 -0.000000 104.811610
LeftHand -11.542530 -0.000000 30.082104
LeftHandThumb1 -26.253704 0.000000 33.147579
RightShoulder -5.308936 -20.993770 1.577247
RightArm 17.863785 -23.521165 58.549658
RightForeArm 188.438212 -0.000000 26.318585
RightHand 0.350654 -0.000000 3.101053
RightHandThumb1 -24.326973 -0.000000 -32.862282
LeftUpLeg -11.502323 5.775018 -0.389332
LeftLeg 15.086116 -0.000000 -0.000000
LeftFoot -18.074468 -0.198017 -12.869574
LeftToeBase 11.919586 -0.000000 -0.000000
RightUpLeg -7.501068 -10.795614 -0.944113
RightLeg 23.757291 -0.000000 -0.000000
RightFoot -13.173450 1.645377 10.378572
RightToeBase -9.384240 -0.000000 0.000000
1247
root 2.140267 37.026764 1.166855 6.261566 27.787459 -2.083403
Spine 3.407540 5.795747 1.303320
Head 7.950393 -8.558305 2.410172
LeftShoulder -3.395267 -9.901929 7.667484
LeftArm -0.148510 -22.710441 -55.157838
LeftForeArm 5.356168 -0.000000 105.015896
LeftHand -11.572172 0.000000 30.052616
LeftHandThumb1 -26.253704 0.000000 33.147579
RightShoulder -5.427716 -20.949247 1.714757
RightArm 17.774587 -23.169952 58.711076
RightForeArm 188.598072 -0.000000 26.260470
RightHand 0.318702 -0.000000 3.470884
RightHandThumb1 -24.326973 -0.000000 -32.862282
LeftUpLeg -11.192934 5.828742 -0.427347
LeftLeg 14.939353 -0.000000 -0.000000
LeftFoot -18.008654 -0.337025 -12.798117
LeftToeBase 12.051404 -0.000000 -0.000000
RightUpLeg -7.410079 -10.736276 -1.046363
RightLeg 24.134063 -0.000000 -0.000000
RightFoot -13.095272 1.621171 10.685763
RightToeBase -9.534622 -0.000000 0.000000
1248
root 2.188221 37.029460 1.167546 6.078081 27.875294 -2.134913
Spine 3.506700 5.711959 1.352349
Head 7.952451 -8.756310 2.619678
LeftShoulder -3.299953 -9.827354 7.679248
LeftArm -0.170937 -22.617867 -55.221085
LeftForeArm 5.431319 -0.000000 105.228700
LeftHand -11.705553 -0.000000 30.080907
LeftHandThumb1 -26.253704 0.000000 33.147579
RightShoulder -5.535526 -20.936845 1.817535
RightArm 17.687480 -22.834070 58.897893
RightForeArm 188.714613 -0.000000 26.202167
RightHand 0.291862 -0.000000 3.772376
RightHandThumb1 -24.326973 -0.000000 -32.862282
LeftUpLeg -10.922290 5.919774 -0.440364
LeftLeg 14.759404 -0.000000 -0.000000
LeftFoot -17.959614 -0.414439 -12.712236
LeftToeBase 12.194014 -0.000000 -0.000000
RightUpLeg -7.388828 -10.677197 -1.118415
RightLeg 24.508428 -0.000000 -0.000000
RightFoot -12.966103 1.687003 10.924204
RightToeBase -9.751556 -0.000000 0.000000
